<svg id="Layer_1" data-name="Layer 1" xmlns="http://www.w3.org/2000/svg" viewBox="0 0 348.63 372.85"><defs><style>.cls-1{fill:#272361;}.cls-2{fill:#1b3c6c;}.cls-3{fill:#3074a4;}</style></defs><title>bonaventure yacht services</title><path class="cls-1" d="M535.19,549.69s74.73,52.71,142.12,2c0,0-31.36,16.69-36.7,10-1,1.63-96.19-84.3-84.07-200.17C551.81,356.28,514.23,434.4,535.19,549.69Z" transform="translate(-336.69 -296.15)"/><path class="cls-2" d="M336.69,529.34a64.44,64.44,0,0,1,13.15-10.5,81.89,81.89,0,0,1,15.32-7.45A91.48,91.48,0,0,1,381.77,507,100.33,100.33,0,0,1,399,505.84a109.28,109.28,0,0,1,17.21,1.77l4.23.9,2.12.46,2.08.57,4.16,1.16c1.39.4,2.73.9,4.1,1.34l2,.69c.68.24,1.37.45,2,.73l4,1.62c2.69,1,5.25,2.31,7.86,3.5,5.16,2.49,10.15,5.28,15,8.26l1.83,1.11c.6.38,1.2.8,1.8,1.2l3.61,2.42,1.8,1.22.91.61.89.71,3.22,2.5c4.32,3.35,8.77,6.58,13.24,9.77q13.41,9.54,27.52,18.07a273.49,273.49,0,0,0,29.08,15.36c10,4.41,20.43,8.13,31.46,9.92-1.39,0-2.79,0-4.19,0s-2.8-.14-4.21-.21c-2.79-.26-5.59-.6-8.37-1.09a129.55,129.55,0,0,1-16.43-4,205.09,205.09,0,0,1-31.16-13.08,303.54,303.54,0,0,1-29.08-17.13c-4.69-3.11-9.28-6.36-13.83-9.71-1.13-.84-2.25-1.7-3.38-2.58l-.74-.58-.83-.55-1.66-1.09-3.33-2.2c-.56-.37-1.1-.74-1.67-1.1l-1.74-1q-6.89-4.3-14.11-7.92c-2.43-1.16-4.81-2.44-7.3-3.43l-3.7-1.59c-1.24-.53-2.5-1-3.75-1.44s-2.5-1-3.78-1.4l-3.82-1.21-1.92-.6-1.93-.51-3.88-1-3.92-.82-2-.41-2-.31c-1.32-.2-2.64-.43-4-.6l-4-.41a106.14,106.14,0,0,0-16.05-.15,98.44,98.44,0,0,0-15.95,2.54,94.81,94.81,0,0,0-15.47,5.22,80.57,80.57,0,0,0-7.4,3.65A62.79,62.79,0,0,0,336.69,529.34Z" transform="translate(-336.69 -296.15)"/><path class="cls-1" d="M365,503.65a63.27,63.27,0,0,1,20.41-8.84,89.46,89.46,0,0,1,22.37-2.48l2.83.05,2.83.16c1.88.07,3.75.31,5.64.48,3.74.45,7.49,1,11.18,1.84s7.35,1.75,11,2.85,7.19,2.35,10.7,3.78A112.14,112.14,0,0,1,472.3,512c6.41,4.28,12.09,9.19,17.76,13.69s11.47,8.89,17.43,13,12,8.13,18.22,11.82,12.5,7.29,19,10.48,13,6.15,19.71,8.72a162.94,162.94,0,0,0,20.49,6.38l2.6.62c.87.22,1.75.35,2.62.53l2.63.5,1.32.25c.44.08.88.13,1.32.2l5.29.77,5.32.49c.88.11,1.77.1,2.66.15l2.67.11c1.78.12,3.56,0,5.34,0l2.68,0,2.65-.17c1.78-.09,3.54-.31,5.31-.51a95.9,95.9,0,0,0,20.81-5,105.12,105.12,0,0,0,19.55-9.32c1.55-1,3.11-1.9,4.6-3,.76-.51,1.52-1,2.27-1.54l2.21-1.63c1.5-1,2.9-2.23,4.36-3.36.73-.56,1.41-1.18,2.11-1.78l2.11-1.79a109.53,109.53,0,0,1-7.61,8.09l-2,1.9c-.69.62-1.41,1.21-2.11,1.82-1.4,1.24-2.87,2.38-4.34,3.53A97.06,97.06,0,0,1,650,578.62c-.86.39-1.71.8-2.59,1.15l-2.63,1.05-1.32.52-1.35.46-2.69.93c-.89.31-1.81.54-2.72.81s-1.83.54-2.75.76l-2.78.65-1.39.33c-.46.1-.93.17-1.4.26-1.87.35-3.75.72-5.64.92l-2.84.36L617,587c-1.89.12-3.79.32-5.69.3l-2.86,0c-1,0-1.9,0-2.85,0a128,128,0,0,1-22.61-2.6,157.72,157.72,0,0,1-21.87-6.08,215.13,215.13,0,0,1-20.82-8.78c-6.77-3.28-13.33-6.93-19.75-10.77s-12.67-8-18.76-12.33-12-8.93-17.72-13.74c-27.24-22.89-61.57-40.17-98.1-35.53-.9.08-1.79.26-2.68.41s-1.8.3-2.68.49L378,499c-.44.11-.89.2-1.32.33l-1.31.39-2.63.78-2.57.95-1.29.48-1.26.56Z" transform="translate(-336.69 -296.15)"/><path class="cls-2" d="M524.51,539s-32-154.8,40-242.87c0,0-140.12,22.68-173.48,186.82,0,0-18.69,6-30.7,18.68C360.37,501.65,418.42,446.94,524.51,539Z" transform="translate(-336.69 -296.15)"/><path class="cls-3" d="M543.19,312.83l-12.67,31.36s-97.42,38-126.11,129.44C404.41,473.63,419.09,351.53,543.19,312.83Z" transform="translate(-336.69 -296.15)"/><path class="cls-1" d="M507.06,663.76a6.64,6.64,0,0,1-.34,2.22,5.08,5.08,0,0,1-1,1.66,3.91,3.91,0,0,1-1.43,1,4.54,4.54,0,0,1-1.77.34,4.82,4.82,0,0,1-1.23-.15,5.18,5.18,0,0,1-1-.37,5.33,5.33,0,0,1-.74-.45,2.36,2.36,0,0,1-.42-.4,1,1,0,0,1-.17-.42,3.1,3.1,0,0,1-.06-.68c0-.2,0-.37,0-.5a1.22,1.22,0,0,1,.06-.32.38.38,0,0,1,.1-.17.2.2,0,0,1,.15,0,.76.76,0,0,1,.4.23,5.27,5.27,0,0,0,.67.51,5.93,5.93,0,0,0,1,.51,3.47,3.47,0,0,0,1.33.24,2.59,2.59,0,0,0,1.05-.2,2.27,2.27,0,0,0,.81-.58,2.57,2.57,0,0,0,.53-.93,4,4,0,0,0,.18-1.25,3,3,0,0,0-.25-1.29,3.5,3.5,0,0,0-.67-.94,6.09,6.09,0,0,0-1-.74l-1.09-.68c-.38-.24-.74-.5-1.1-.78a5.32,5.32,0,0,1-.95-1,5,5,0,0,1-.67-1.35,5.72,5.72,0,0,1-.26-1.86,6.06,6.06,0,0,1,.3-2,4.23,4.23,0,0,1,.83-1.46,3.59,3.59,0,0,1,1.28-.9,4,4,0,0,1,1.6-.31,4.16,4.16,0,0,1,1.71.38,3.54,3.54,0,0,1,.7.38,1.77,1.77,0,0,1,.41.35.94.94,0,0,1,.12.2.87.87,0,0,1,0,.19,1.88,1.88,0,0,1,0,.28c0,.11,0,.26,0,.43s0,.31,0,.44a2.16,2.16,0,0,1-.05.32.49.49,0,0,1-.08.19.18.18,0,0,1-.13.06.7.7,0,0,1-.35-.19c-.16-.13-.36-.27-.59-.43a4.19,4.19,0,0,0-.82-.44,2.79,2.79,0,0,0-1.07-.2,2.18,2.18,0,0,0-.95.2,1.89,1.89,0,0,0-.68.53,2.22,2.22,0,0,0-.4.78,3.71,3.71,0,0,0-.13,1,3,3,0,0,0,.26,1.28,3.29,3.29,0,0,0,.67.94,6.15,6.15,0,0,0,1,.76l1.1.69a12.88,12.88,0,0,1,1.1.77,5.36,5.36,0,0,1,1,1,4.69,4.69,0,0,1,.68,1.34A5.9,5.9,0,0,1,507.06,663.76Z" transform="translate(-336.69 -296.15)"/><path class="cls-1" d="M530.87,667.77c0,.16,0,.3,0,.43a2.05,2.05,0,0,1-.07.31.5.5,0,0,1-.12.17.24.24,0,0,1-.15.06h-6.33a.63.63,0,0,1-.45-.21,1.05,1.05,0,0,1-.21-.75V652a1.08,1.08,0,0,1,.21-.75.63.63,0,0,1,.45-.21h6.26a.24.24,0,0,1,.15.06.31.31,0,0,1,.1.17,2.05,2.05,0,0,1,.07.31,3,3,0,0,1,0,.46,2.63,2.63,0,0,1,0,.43,1.61,1.61,0,0,1-.07.31.4.4,0,0,1-.1.17.3.3,0,0,1-.15.05h-5.16v5.57h4.42a.2.2,0,0,1,.15.06.42.42,0,0,1,.11.17.84.84,0,0,1,.07.31c0,.12,0,.28,0,.45s0,.31,0,.42a.73.73,0,0,1-.07.29.29.29,0,0,1-.11.16.25.25,0,0,1-.15,0h-4.42v6.35h5.23a.3.3,0,0,1,.15.05.83.83,0,0,1,.12.17,1.61,1.61,0,0,1,.07.31C530.86,667.43,530.87,667.58,530.87,667.77Z" transform="translate(-336.69 -296.15)"/><path class="cls-1" d="M556.13,668.38a.5.5,0,0,1,0,.19.22.22,0,0,1-.13.14.67.67,0,0,1-.29.08,3.1,3.1,0,0,1-.49,0,2.54,2.54,0,0,1-.43,0,.66.66,0,0,1-.27-.08.46.46,0,0,1-.16-.18,1.21,1.21,0,0,1-.09-.27L553,664.08c-.14-.48-.29-.92-.44-1.31a4.35,4.35,0,0,0-.55-1,2.34,2.34,0,0,0-.74-.67,2.09,2.09,0,0,0-1-.24h-1.18v7.55a.36.36,0,0,1,0,.19.38.38,0,0,1-.14.14l-.27.08a2.42,2.42,0,0,1-.42,0,2.63,2.63,0,0,1-.43,0l-.27-.08a.32.32,0,0,1-.14-.14.36.36,0,0,1,0-.19V652a1.08,1.08,0,0,1,.21-.75A.63.63,0,0,1,548,651h2.81a6.47,6.47,0,0,1,.83,0l.6.07a4.31,4.31,0,0,1,1.35.56,3.39,3.39,0,0,1,1,1,4.15,4.15,0,0,1,.6,1.35,6.79,6.79,0,0,1,.2,1.68,6.52,6.52,0,0,1-.18,1.6,4.21,4.21,0,0,1-.52,1.24,3.66,3.66,0,0,1-.8.94,4.73,4.73,0,0,1-1.05.68,2.44,2.44,0,0,1,.59.48,3.86,3.86,0,0,1,.49.71,6.52,6.52,0,0,1,.44.95c.13.35.27.75.41,1.2l1.18,3.91c.09.33.16.56.18.69A1.52,1.52,0,0,1,556.13,668.38Zm-2.64-12.46a3.94,3.94,0,0,0-.35-1.77,2,2,0,0,0-1.16-1,2.35,2.35,0,0,0-.58-.14,6.35,6.35,0,0,0-.84,0h-1.48v6h1.72a3,3,0,0,0,1.2-.23,2.38,2.38,0,0,0,.84-.63,2.6,2.6,0,0,0,.49-.95A4.13,4.13,0,0,0,553.49,655.92Z" transform="translate(-336.69 -296.15)"/><path class="cls-1" d="M579.33,668.33a.53.53,0,0,1-.11.24.46.46,0,0,1-.2.16,1.18,1.18,0,0,1-.32.07l-.5,0h-.39a1.23,1.23,0,0,1-.29,0l-.21-.06a.38.38,0,0,1-.15-.09.64.64,0,0,1-.1-.13,1.45,1.45,0,0,1-.06-.19l-4.32-16.48a2.22,2.22,0,0,1-.08-.49.35.35,0,0,1,.08-.28.52.52,0,0,1,.3-.12,3.91,3.91,0,0,1,.55,0l.45,0a.53.53,0,0,1,.26.08.32.32,0,0,1,.14.14,1.38,1.38,0,0,1,.09.23l3.78,14.93h0L582,651.4a1,1,0,0,1,.07-.24.23.23,0,0,1,.14-.15.67.67,0,0,1,.29-.08l.49,0a3.34,3.34,0,0,1,.5,0,.45.45,0,0,1,.25.13.47.47,0,0,1,0,.28,3.27,3.27,0,0,1-.1.49Z" transform="translate(-336.69 -296.15)"/><path class="cls-1" d="M602,668.38a.36.36,0,0,1-.05.19.27.27,0,0,1-.14.14l-.27.08a2.42,2.42,0,0,1-.42,0,2.5,2.5,0,0,1-.42,0l-.28-.08a.38.38,0,0,1-.14-.14.36.36,0,0,1,0-.19v-17a.38.38,0,0,1,0-.19.28.28,0,0,1,.15-.13,1.15,1.15,0,0,1,.28-.09,2.25,2.25,0,0,1,.4,0,2.42,2.42,0,0,1,.42,0,1.21,1.21,0,0,1,.27.09.23.23,0,0,1,.14.13.38.38,0,0,1,.05.19Z" transform="translate(-336.69 -296.15)"/><path class="cls-1" d="M628,666.23c0,.15,0,.27,0,.38a2,2,0,0,1,0,.29,1.14,1.14,0,0,1-.07.22.74.74,0,0,1-.14.23,2.44,2.44,0,0,1-.43.42,4.21,4.21,0,0,1-.81.55,5.14,5.14,0,0,1-1.11.45,5,5,0,0,1-3.69-.39,5,5,0,0,1-1.77-1.7,8.87,8.87,0,0,1-1.12-2.78,18.7,18.7,0,0,1,0-7.74,9.7,9.7,0,0,1,1.19-2.93,5.51,5.51,0,0,1,1.83-1.83,4.56,4.56,0,0,1,2.36-.63,4.13,4.13,0,0,1,1.11.15,4.92,4.92,0,0,1,1,.36,4.39,4.39,0,0,1,.82.51,2.81,2.81,0,0,1,.49.47,1,1,0,0,1,.18.28,1.25,1.25,0,0,1,.07.23,2.15,2.15,0,0,1,0,.31c0,.12,0,.26,0,.42s0,.34,0,.47a1.94,1.94,0,0,1-.07.32.48.48,0,0,1-.09.19.2.2,0,0,1-.14.06c-.1,0-.23-.09-.4-.26a5.87,5.87,0,0,0-.66-.59,4.63,4.63,0,0,0-1-.59,3.25,3.25,0,0,0-1.39-.27,2.88,2.88,0,0,0-1.6.47,3.84,3.84,0,0,0-1.24,1.39,7.9,7.9,0,0,0-.79,2.25,14.4,14.4,0,0,0-.29,3,13.91,13.91,0,0,0,.28,3,7.14,7.14,0,0,0,.78,2.17,3.6,3.6,0,0,0,1.24,1.32,3.14,3.14,0,0,0,1.67.44,3.27,3.27,0,0,0,1.38-.26,4.39,4.39,0,0,0,1-.58c.27-.21.5-.41.68-.58a.71.71,0,0,1,.42-.26.16.16,0,0,1,.12,0,.34.34,0,0,1,.09.16,1.82,1.82,0,0,1,0,.32C628,665.85,628,666,628,666.23Z" transform="translate(-336.69 -296.15)"/><path class="cls-1" d="M651.8,667.77a2.89,2.89,0,0,1,0,.43.94.94,0,0,1-.07.31.32.32,0,0,1-.12.17.2.2,0,0,1-.14.06h-6.34a.63.63,0,0,1-.44-.21,1.05,1.05,0,0,1-.21-.75V652a1.08,1.08,0,0,1,.21-.75.63.63,0,0,1,.44-.21h6.27a.2.2,0,0,1,.14.06.32.32,0,0,1,.11.17,2.05,2.05,0,0,1,.07.31c0,.13,0,.28,0,.46s0,.31,0,.43a1.61,1.61,0,0,1-.07.31.42.42,0,0,1-.11.17.24.24,0,0,1-.14.05h-5.17v5.57h4.43a.22.22,0,0,1,.15.06.56.56,0,0,1,.11.17,1.61,1.61,0,0,1,.07.31c0,.12,0,.28,0,.45s0,.31,0,.42a1.37,1.37,0,0,1-.07.29.34.34,0,0,1-.11.16.27.27,0,0,1-.15,0h-4.43v6.35h5.24a.24.24,0,0,1,.14.05.43.43,0,0,1,.12.17.84.84,0,0,1,.07.31A3,3,0,0,1,651.8,667.77Z" transform="translate(-336.69 -296.15)"/><path class="cls-1" d="M676.39,663.76A6.63,6.63,0,0,1,676,666a4.89,4.89,0,0,1-.94,1.66,4,4,0,0,1-1.43,1,4.54,4.54,0,0,1-1.77.34,4.82,4.82,0,0,1-1.23-.15,5.16,5.16,0,0,1-1.76-.82,1.94,1.94,0,0,1-.41-.4,1.16,1.16,0,0,1-.18-.42,3.2,3.2,0,0,1-.05-.68,3.63,3.63,0,0,1,0-.5,1.22,1.22,0,0,1,.06-.32.31.31,0,0,1,.1-.17.19.19,0,0,1,.14,0,.78.78,0,0,1,.41.23,5.09,5.09,0,0,0,.66.51,6.06,6.06,0,0,0,1,.51A3.43,3.43,0,0,0,672,667a2.59,2.59,0,0,0,1-.2,2.46,2.46,0,0,0,.81-.58,2.73,2.73,0,0,0,.53-.93,4,4,0,0,0,.18-1.25,3.16,3.16,0,0,0-.25-1.29,3.32,3.32,0,0,0-.68-.94,6,6,0,0,0-1-.74l-1.1-.68c-.37-.24-.74-.5-1.09-.78a5.32,5.32,0,0,1-1-1,5,5,0,0,1-.68-1.35,6.73,6.73,0,0,1,0-3.84,4.09,4.09,0,0,1,.84-1.46A3.55,3.55,0,0,1,671,651a4.07,4.07,0,0,1,1.6-.31,4.25,4.25,0,0,1,1.72.38,3.85,3.85,0,0,1,.7.38,1.67,1.67,0,0,1,.4.35.73.73,0,0,1,.13.2.87.87,0,0,1,.05.19c0,.08,0,.17,0,.28s0,.26,0,.43,0,.31,0,.44a2.16,2.16,0,0,1,0,.32.37.37,0,0,1-.09.19.16.16,0,0,1-.12.06.69.69,0,0,1-.36-.19c-.16-.13-.35-.27-.58-.43a4.49,4.49,0,0,0-.82-.44,2.83,2.83,0,0,0-1.07-.2,2.19,2.19,0,0,0-1,.2,1.86,1.86,0,0,0-.67.53,2.22,2.22,0,0,0-.4.78,3.32,3.32,0,0,0-.13,1,3,3,0,0,0,.25,1.28,3.32,3.32,0,0,0,.68.94,5.35,5.35,0,0,0,1,.76l1.1.69a12.88,12.88,0,0,1,1.1.77,5,5,0,0,1,1,1,4.7,4.7,0,0,1,.69,1.34A5.9,5.9,0,0,1,676.39,663.76Z" transform="translate(-336.69 -296.15)"/><path class="cls-1" d="M348.33,661v6.46a.33.33,0,0,1-.06.19.32.32,0,0,1-.18.12,1.81,1.81,0,0,1-.37.09,4.22,4.22,0,0,1-.55,0,4.39,4.39,0,0,1-.56,0,2.09,2.09,0,0,1-.36-.09.43.43,0,0,1-.2-.12.41.41,0,0,1-.05-.19V661l-4.95-9.87a2,2,0,0,1-.18-.49.27.27,0,0,1,.06-.27.62.62,0,0,1,.37-.12,6.62,6.62,0,0,1,.71,0,5.86,5.86,0,0,1,.66,0,1.82,1.82,0,0,1,.4.07.49.49,0,0,1,.22.14.93.93,0,0,1,.14.22l2.42,5c.23.48.45,1,.68,1.5s.45,1.06.68,1.59h0c.2-.52.42-1,.64-1.54l.66-1.51,2.44-5.06a.84.84,0,0,1,.12-.23.38.38,0,0,1,.2-.14,1.26,1.26,0,0,1,.36-.07,4.51,4.51,0,0,1,.58,0,7.42,7.42,0,0,1,.76,0,.83.83,0,0,1,.39.13.26.26,0,0,1,.07.27,1.84,1.84,0,0,1-.18.48Z" transform="translate(-336.69 -296.15)"/><path class="cls-1" d="M384.89,667a2.07,2.07,0,0,1,.12.48.32.32,0,0,1-.11.28.68.68,0,0,1-.35.12,5.94,5.94,0,0,1-.67,0l-.67,0a1.35,1.35,0,0,1-.38-.07.34.34,0,0,1-.19-.13,1.17,1.17,0,0,1-.12-.2l-1.5-4.26h-7.28l-1.43,4.21a1,1,0,0,1-.11.21.64.64,0,0,1-.2.14.94.94,0,0,1-.36.09,5.22,5.22,0,0,1-.62,0,5.6,5.6,0,0,1-.64,0,.73.73,0,0,1-.35-.13.37.37,0,0,1-.1-.28,2.07,2.07,0,0,1,.12-.48l5.87-16.26a.86.86,0,0,1,.14-.25.71.71,0,0,1,.26-.15,2.14,2.14,0,0,1,.43-.07l.67,0,.72,0a2.36,2.36,0,0,1,.46.07.59.59,0,0,1,.27.16.87.87,0,0,1,.15.25Zm-7.54-14.35h0l-3,8.72h6.09Z" transform="translate(-336.69 -296.15)"/><path class="cls-1" d="M414.17,665.23c0,.14,0,.27,0,.38a2,2,0,0,1-.05.28.85.85,0,0,1-.09.22,1.07,1.07,0,0,1-.19.23,4.83,4.83,0,0,1-.56.41,7.73,7.73,0,0,1-1.08.54,8.52,8.52,0,0,1-1.47.45,8.71,8.71,0,0,1-1.82.18,7.94,7.94,0,0,1-3.08-.57,6.15,6.15,0,0,1-2.34-1.68,7.6,7.6,0,0,1-1.49-2.74,13.75,13.75,0,0,1,0-7.63,8.29,8.29,0,0,1,1.58-2.89A6.73,6.73,0,0,1,406,650.6a7.82,7.82,0,0,1,3.14-.62,8,8,0,0,1,1.47.14,11.12,11.12,0,0,1,1.33.36,6,6,0,0,1,1.08.5,4,4,0,0,1,.66.47,1.35,1.35,0,0,1,.23.27.79.79,0,0,1,.09.23,2.08,2.08,0,0,1,.05.3,2.68,2.68,0,0,1,0,.42,3.1,3.1,0,0,1,0,.46,1.86,1.86,0,0,1-.08.32.48.48,0,0,1-.13.19.29.29,0,0,1-.19.06,1.08,1.08,0,0,1-.53-.26,9.17,9.17,0,0,0-.87-.59,7.74,7.74,0,0,0-1.31-.58,5.87,5.87,0,0,0-1.84-.26,4.69,4.69,0,0,0-2.13.47,4.39,4.39,0,0,0-1.64,1.37,6.59,6.59,0,0,0-1.06,2.21,10.85,10.85,0,0,0-.37,3,11,11,0,0,0,.36,3,6.22,6.22,0,0,0,1,2.13,4.21,4.21,0,0,0,1.66,1.3,5.22,5.22,0,0,0,2.21.44,5.91,5.91,0,0,0,1.83-.25,7.37,7.37,0,0,0,1.34-.58,10.49,10.49,0,0,0,.9-.57,1.11,1.11,0,0,1,.56-.26.27.27,0,0,1,.16,0,.29.29,0,0,1,.11.16,1.06,1.06,0,0,1,.06.31A4,4,0,0,1,414.17,665.23Z" transform="translate(-336.69 -296.15)"/><path class="cls-1" d="M482.48,652.41a3,3,0,0,1,0,.45.89.89,0,0,1-.09.3.36.36,0,0,1-.15.17.31.31,0,0,1-.19.06h-4.93v15.18a.41.41,0,0,1,0,.19.39.39,0,0,1-.19.12,1.87,1.87,0,0,1-.36.09,4.39,4.39,0,0,1-.56,0,4.5,4.5,0,0,1-.56,0,1.87,1.87,0,0,1-.36-.09.39.39,0,0,1-.19-.12.32.32,0,0,1-.05-.19V653.39h-4.93a.36.36,0,0,1-.2-.06.41.41,0,0,1-.14-.17,1.86,1.86,0,0,1-.09-.3,3.39,3.39,0,0,1,0-.9,2.69,2.69,0,0,1,.09-.32.41.41,0,0,1,.14-.17.36.36,0,0,1,.2-.06H482a.31.31,0,0,1,.19.06.36.36,0,0,1,.15.17,1.12,1.12,0,0,1,.09.32A3,3,0,0,1,482.48,652.41Z" transform="translate(-336.69 -296.15)"/><path class="cls-1" d="M450.42,657.14v.47h0c-.06-.53-.14-1.06-.24-1.6a23.77,23.77,0,0,0-1.93-5.92l-.23-.44-2.14,1.1.22.44a21.4,21.4,0,0,1,1.89,6.4l-10.47-.06a2.7,2.7,0,0,0-1.16-1.25l0-4h-2.41l0,3.93a2.71,2.71,0,0,0-1.32,1.31l-2,0,0,2.41h2a2.65,2.65,0,0,0,1.23,1.18l0,3.93,2.41,0,0-4a2.71,2.71,0,0,0,1.11-1.09l10.67.07a10.48,10.48,0,0,1-2,6.08l-.3.39,1.92,1.45.3-.39a12.62,12.62,0,0,0,2.46-7l2.47-1.83Z" transform="translate(-336.69 -296.15)"/><path class="cls-2" d="M365,622.57a9.5,9.5,0,0,1,5.55,8.8c0,5.86-5.06,10.3-11.73,10.3H342.11V605.49h16.34c6.42,0,11.1,3.92,11.1,9.26a9.22,9.22,0,0,1-4.58,7.82Zm-4.31,7.61a3.25,3.25,0,0,0-3.56-3.27h-5.42v6.58h5.42A3.26,3.26,0,0,0,360.66,630.18Zm-.57-13.78a3.06,3.06,0,0,0-3.37-3.15h-5v6.3h5a3.06,3.06,0,0,0,3.37-3.15Z" transform="translate(-336.69 -296.15)"/><path class="cls-2" d="M373.66,627.72c0-8.66,6.55-14.87,15.65-14.87S405,619.06,405,627.72s-6.57,14.86-15.64,14.86S373.66,636.34,373.66,627.72ZM389.31,634a6.24,6.24,0,1,0-6-6.23,5.88,5.88,0,0,0,6,6.23Z" transform="translate(-336.69 -296.15)"/><path class="cls-2" d="M437,624.65v17h-9.62V626c0-3.25-1.22-4.86-3.64-4.86-3,0-4.72,2.09-4.72,5.65v14.9H409.4V613.76h6.74l1.32,2.88a11.59,11.59,0,0,1,8.79-3.7C432.73,612.94,437,617.54,437,624.65Z" transform="translate(-336.69 -296.15)"/><path class="cls-2" d="M472.44,613.73v27.91H465l-.82-2a13.23,13.23,0,0,1-8.42,2.91c-8.54,0-14.64-6.22-14.64-14.89s6.1-14.8,14.64-14.8a13.28,13.28,0,0,1,8.53,3l1-2.16Zm-9.14,14a6.25,6.25,0,1,0-6.25,6.36A6.13,6.13,0,0,0,463.3,627.71Z" transform="translate(-336.69 -296.15)"/><path class="cls-2" d="M506.8,613.76l-11.22,27.91h-8.71L475.5,613.76H486l5.28,16.53,5.21-16.53Z" transform="translate(-336.69 -296.15)"/><path class="cls-2" d="M537.4,627.45a18.61,18.61,0,0,1-.2,2.55H516.48c.63,3.2,2.66,4.85,5.69,4.85a5.61,5.61,0,0,0,5.05-2.61h9.56c-2,6.37-7.6,10.34-14.61,10.34-8.7,0-15.16-6.36-15.16-14.89s6.4-14.84,15.16-14.84c9,0,15.23,6.41,15.23,14.6Zm-20.75-2.78h11.28a5.62,5.62,0,0,0-5.76-4.29A5.39,5.39,0,0,0,516.65,624.67Z" transform="translate(-336.69 -296.15)"/><path class="cls-2" d="M569.36,624.65v17h-9.61V626c0-3.25-1.22-4.86-3.64-4.86-3,0-4.72,2.09-4.72,5.65v14.9h-9.62V613.76h6.75l1.32,2.88a11.56,11.56,0,0,1,8.78-3.7C565.1,612.94,569.36,617.54,569.36,624.65Z" transform="translate(-336.69 -296.15)"/><path class="cls-2" d="M593.73,633.25v8.42h-6.62c-6.17,0-9.92-3.77-9.92-10V621.16h-5.11v-2.24l12.5-13.32h2v8.16h7v7.4H586.8v8.89a3,3,0,0,0,3.24,3.2Z" transform="translate(-336.69 -296.15)"/><path class="cls-2" d="M597.85,629.69V613.76h9.62v15.51c0,3,1.58,4.68,4.15,4.68s4.12-1.76,4.12-4.68V613.76h9.61v15.93c0,7.81-5.49,12.89-13.73,12.89S597.85,637.5,597.85,629.69Z" transform="translate(-336.69 -296.15)"/><path class="cls-2" d="M649.21,613.63v8.8h-3.73c-3.41,0-4.83,1.49-4.83,5.05v14.19H631V613.76h6.44l1.5,3.1c2-2.28,4.36-3.23,7.68-3.23Z" transform="translate(-336.69 -296.15)"/><path class="cls-2" d="M681.14,627.45a17.16,17.16,0,0,1-.2,2.55H660.22c.63,3.2,2.66,4.85,5.7,4.85a5.6,5.6,0,0,0,5-2.61h9.57c-2,6.37-7.61,10.34-14.61,10.34-8.71,0-15.16-6.36-15.16-14.89s6.4-14.84,15.16-14.84c9,0,15.22,6.41,15.22,14.6Zm-20.75-2.78h11.28a5.6,5.6,0,0,0-5.75-4.29A5.4,5.4,0,0,0,660.39,624.67Z" transform="translate(-336.69 -296.15)"/></svg>